<svg width="547" height="415" viewBox="0 0 547 415" fill="none" xmlns="http://www.w3.org/2000/svg">
<g opacity="0.7" clipPath="url(#clip0_576_1381)">
<path d="M192.672 83.8496C188.821 79.9942 182.595 79.9942 178.744 83.8496L173.186 89.4134C169.335 93.2688 169.335 99.5021 173.186 103.358C177.037 107.213 183.263 107.213 187.092 103.358L192.672 97.7706C196.5 93.9152 196.5 87.6819 192.672 83.8496Z" fill="url(#paint0_linear_576_1381)"/>
<path d="M274.838 239.244L281.479 232.595C285.399 228.647 291.995 228.578 295.938 232.502L295.754 232.318C299.674 236.266 299.351 242.591 295.408 246.539L201.435 340.593C197.515 344.54 191.404 344.702 187.461 340.777L187.507 340.824C183.563 336.876 183.563 330.596 187.507 326.672L192.718 321.431C196.662 317.483 196.777 311.111 192.834 307.164L192.972 307.302C189.029 303.354 182.733 303.562 178.79 307.51L99.9682 386.419C96.0248 390.367 89.9137 389.882 85.9704 385.957L85.7167 385.703C81.7733 381.756 81.1737 375.499 85.1171 371.551L97.9389 358.715C101.882 354.791 102.274 348.396 98.3309 344.448L98.4001 344.517C94.4567 340.57 87.9536 340.847 84.0102 344.794L16.9035 411.976C12.9602 415.923 6.75683 416.085 2.81345 412.137C-1.12993 408.189 -0.945446 401.979 2.97487 398.032L109.977 290.911C113.92 286.963 113.989 280.245 110.046 276.297L109.815 276.066C105.872 272.119 99.0688 272.096 95.1255 276.043L91.8047 279.368C87.8613 283.315 81.7964 283.315 77.876 279.368L77.9683 279.46C74.0249 275.535 73.9788 269.371 77.8991 265.424L181.834 161.373C185.777 157.426 191.704 157.887 195.624 161.835L195.463 161.674C199.406 165.621 199.683 171.37 195.739 175.318L173.901 197.18C169.957 201.128 170.511 207.292 174.454 211.217L174.662 211.425C178.605 215.372 184.809 215.95 188.752 212.025L197.769 202.998C201.712 199.05 207.915 198.889 211.859 202.837C215.802 206.784 215.618 212.994 211.697 216.942L191.289 237.374C187.345 241.321 187.092 248.016 191.035 251.941L190.85 251.756C194.794 255.704 201.274 255.219 205.194 251.295L302.072 154.309C306.016 150.361 312.519 150.638 316.439 154.563L316.647 154.771C320.59 158.719 320.844 165.229 316.923 169.177L260.886 225.276C256.942 229.224 256.55 235.781 260.471 239.728L260.355 239.613C264.299 243.561 270.848 243.145 274.791 239.197L274.838 239.244Z" fill="url(#paint1_linear_576_1381)"/>
<path d="M276.59 107.744C272.924 104.073 266.951 104.073 263.284 107.744L257.957 113.077C254.29 116.747 254.29 122.727 257.957 126.398C261.624 130.068 267.597 130.068 271.263 126.398L276.59 121.065C280.257 117.394 280.257 111.414 276.59 107.744Z" fill="url(#paint2_linear_576_1381)"/>
<path d="M227.332 143.736L233.697 137.364C237.456 133.601 243.752 133.508 247.511 137.271L247.326 137.087C251.085 140.85 250.762 146.921 247.003 150.685L168.412 229.363C164.653 233.126 158.819 233.287 155.06 229.524L155.106 229.571C151.347 225.807 151.347 219.805 155.106 216.019L160.087 211.009C163.846 207.246 163.985 201.128 160.203 197.365L160.341 197.504C156.582 193.741 150.54 193.925 146.781 197.688L71.3729 273.181C67.614 276.944 61.7566 276.505 57.9977 272.742L57.7671 272.511C54.0082 268.748 53.4086 262.746 57.1906 258.983L69.4589 246.701C73.2178 242.938 73.6098 236.82 69.8278 233.057L69.897 233.126C66.1381 229.363 59.9117 229.617 56.1298 233.38L17.0649 272.488C13.306 276.251 7.35638 276.413 3.59749 272.65C-0.16141 268.887 1.52588e-05 262.93 3.75891 259.167L80.9892 181.851C84.7481 178.088 84.8173 171.647 81.0584 167.884L80.8278 167.653C77.0689 163.89 70.5427 163.867 66.7838 167.63L63.6014 170.816C59.8426 174.579 54.0312 174.602 50.2724 170.816L50.3415 170.885C46.5826 167.122 46.5135 161.235 50.2724 157.472L138.41 69.259C142.169 65.496 147.842 65.9346 151.601 69.6977L151.44 69.5361C155.199 73.2991 155.475 78.8168 151.716 82.5799L130.823 103.496C127.065 107.259 127.572 113.169 131.354 116.932L131.561 117.14C135.32 120.903 141.27 121.48 145.029 117.717L153.654 109.083C157.412 105.32 163.362 105.158 167.121 108.921C170.88 112.684 170.718 118.641 166.96 122.404L147.427 141.958C143.668 145.721 143.415 152.139 147.173 155.902L147.012 155.74C150.771 159.504 156.974 159.065 160.733 155.302L229.777 86.1813C233.536 82.4183 239.762 82.6722 243.521 86.4353L243.706 86.62C247.464 90.383 247.718 96.6163 243.959 100.403L213.98 130.415C210.221 134.178 209.829 140.48 213.588 144.243L213.473 144.151C217.232 147.914 223.527 147.522 227.286 143.759L227.332 143.736Z" fill="url(#paint3_linear_576_1381)"/>
<path d="M231.783 254.573C235.634 250.718 241.861 250.718 245.712 254.573C249.563 258.429 249.563 264.662 245.712 268.517L211.375 302.893C207.523 306.725 201.297 306.725 197.446 302.893C193.595 299.037 193.595 292.804 197.446 288.949L231.783 254.573Z" fill="url(#paint4_linear_576_1381)"/>
<path d="M161.494 267.34C165.345 263.484 171.572 263.484 175.423 267.34C179.274 271.195 179.274 277.429 175.423 281.284L166.152 290.565C162.301 294.42 156.075 294.42 152.247 290.565C148.396 286.709 148.396 280.476 152.247 276.644L161.517 267.363L161.494 267.34Z" fill="url(#paint5_linear_576_1381)"/>
<path d="M451.967 62.0098L268.196 245.985C264.299 249.91 258.165 249.794 254.244 245.939C250.37 241.991 250.37 235.965 254.29 232.064L268.542 218.004C272.462 214.056 272.67 205.584 268.75 203.275C264.806 200.967 257.634 199.212 253.714 203.16L200.997 255.82C197.077 259.744 190.574 260.229 186.63 256.328C182.733 252.38 183.148 245.731 187.069 241.806L199.89 228.97C203.788 225.046 204.249 218.327 200.398 214.38C196.454 210.524 189.859 211.124 185.962 215.026L145.121 255.912C141.178 259.86 134.513 259.86 130.57 255.912L130.339 255.681C126.396 251.733 126.327 244.992 130.27 241.044L211.006 160.242C214.926 156.318 215.525 149.692 211.628 145.744C207.685 141.865 200.997 142.396 197.077 146.321L184.97 158.695C181.027 162.643 175.677 162.482 171.064 158.534C166.452 154.586 167.121 148.699 171.064 144.751L294.416 21.0085C298.359 17.0607 303.848 18.5383 307.791 20.8469H307.861C311.804 25.4642 312.127 31.0049 308.183 34.9296L264.045 79.1861C260.125 83.1107 259.802 89.7365 263.653 93.6843C267.597 97.5166 274.077 97.0549 277.974 93.1302L286.991 84.1035C290.934 80.1788 297.068 80.7098 300.988 84.6575L301.219 84.8884C305.162 88.8362 305.762 95.0464 301.842 98.9941L281.433 119.426C277.513 123.35 277.305 129.607 281.179 133.554C285.123 137.433 291.418 137.294 295.339 133.37L425.424 3.11658C429.321 -0.785008 435.963 -1.1313 439.906 2.72411C443.757 6.67188 443.25 13.1361 439.33 17.0607L407.898 48.4351C403.954 52.3597 403.978 58.6623 408.59 62.6101C413.202 66.5578 418.806 67.2504 422.726 63.3027L437.969 48.0888C441.889 44.1641 447.885 44.2564 451.829 48.1349C455.726 52.0827 455.864 58.0852 451.944 62.0098H451.967Z" fill="url(#paint6_linear_576_1381)"/>
<path d="M271.263 309.726C274.93 313.397 280.902 313.397 284.569 309.726L289.896 304.393C293.563 300.722 293.563 294.743 289.896 291.072C286.23 287.402 280.257 287.402 276.59 291.072L271.263 296.405C267.596 300.076 267.596 306.055 271.263 309.726Z" fill="#B4E4D8"/>
<path d="M320.521 273.758L314.156 280.13C310.397 283.893 304.102 283.985 300.343 280.222L300.527 280.407C296.768 276.644 297.091 270.572 300.85 266.809L379.441 188.131C383.2 184.368 389.034 184.206 392.793 187.969L392.747 187.923C396.506 191.686 396.506 197.688 392.747 201.475L387.743 206.484C383.984 210.247 383.846 216.365 387.627 220.128L387.489 219.99C391.248 223.753 397.29 223.568 401.049 219.805L476.457 144.313C480.216 140.55 486.074 140.988 489.833 144.751L490.063 144.982C493.822 148.745 494.422 154.748 490.64 158.511L478.371 170.793C474.613 174.556 474.22 180.674 478.002 184.437L477.933 184.368C481.692 188.131 487.919 187.877 491.677 184.114L530.742 145.005C534.501 141.242 540.451 141.081 544.21 144.844C547.969 148.607 547.807 154.563 544.048 158.326L466.818 235.619C463.059 239.382 462.99 245.823 466.749 249.586L466.979 249.817C470.738 253.58 477.264 253.603 481.023 249.84L484.206 246.654C487.965 242.891 493.776 242.868 497.535 246.654L497.443 246.585C501.202 250.348 501.271 256.235 497.512 259.998L409.397 348.211C405.638 351.974 399.965 351.536 396.206 347.773L396.368 347.934C392.609 344.171 392.332 338.654 396.091 334.89L416.984 313.974C420.743 310.211 420.235 304.301 416.453 300.538L416.246 300.33C412.487 296.567 406.537 295.99 402.778 299.753L394.154 308.387C390.395 312.15 384.445 312.312 380.686 308.549C376.927 304.786 377.089 298.83 380.848 295.067L400.38 275.512C404.139 271.749 404.393 265.331 400.634 261.568L400.795 261.73C397.036 257.967 390.833 258.405 387.074 262.169L318.03 331.289C314.271 335.052 308.045 334.798 304.286 331.035L304.102 330.85C300.343 327.087 300.089 320.854 303.848 317.068L333.827 287.056C337.586 283.293 337.978 276.99 334.219 273.227L334.334 273.342C330.575 269.579 324.28 269.972 320.521 273.735V273.758Z" fill="#B4E4D8"/>
</g>
<defs>
<linearGradient id="paint0_linear_576_1381" x1="53.2702" y1="223.383" x2="196.429" y2="80.384" gradientUnits="userSpaceOnUse">
<stop stop-color="#BAD6E9"/>
<stop offset="0.31" stop-color="#B2EBC8"/>
<stop offset="0.75" stop-color="#7FC6EB"/>
<stop offset="1" stop-color="#64CABC"/>
</linearGradient>
<linearGradient id="paint1_linear_576_1381" x1="16.4013" y1="426.141" x2="302.145" y2="140.714" gradientUnits="userSpaceOnUse">
<stop stop-color="#F6CFD6"/>
<stop offset="1" stop-color="#FEE3E8"/>
</linearGradient>
<linearGradient id="paint2_linear_576_1381" x1="257.556" y1="126.472" x2="276.215" y2="107.833" gradientUnits="userSpaceOnUse">
<stop stop-color="#BAD6E9"/>
<stop offset="0.31" stop-color="#B2EBC8"/>
<stop offset="0.75" stop-color="#7FC6EB"/>
<stop offset="1" stop-color="#64CABC"/>
</linearGradient>
<linearGradient id="paint3_linear_576_1381" x1="16.5318" y1="286.044" x2="229.746" y2="73.0663" gradientUnits="userSpaceOnUse">
<stop stop-color="#BAD6E9"/>
<stop offset="0.31" stop-color="#B2EBC8"/>
<stop offset="0.75" stop-color="#7FC6EB"/>
<stop offset="1" stop-color="#64CABC"/>
</linearGradient>
<linearGradient id="paint4_linear_576_1381" x1="222.374" y1="277.913" x2="378.392" y2="122.069" gradientUnits="userSpaceOnUse">
<stop stop-color="#FD2AA3"/>
<stop offset="1" stop-color="#8353CF"/>
</linearGradient>
<linearGradient id="paint5_linear_576_1381" x1="193.618" y1="249.125" x2="349.635" y2="93.2805" gradientUnits="userSpaceOnUse">
<stop stop-color="#FD2AA3"/>
<stop offset="1" stop-color="#8353CF"/>
</linearGradient>
<linearGradient id="paint6_linear_576_1381" x1="179.712" y1="235.204" x2="335.73" y2="79.3593" gradientUnits="userSpaceOnUse">
<stop stop-color="#FD2AA3"/>
<stop offset="1" stop-color="#8353CF"/>
</linearGradient>
<clipPath id="clip0_576_1381">
<rect width="547" height="415" fill="white"/>
</clipPath>
</defs>
</svg>
